<?xml version="1.0" standalone="no"?>
<!DOCTYPE svg PUBLIC "-//W3C//DTD SVG 20010904//EN"
 "http://www.w3.org/TR/2001/REC-SVG-20010904/DTD/svg10.dtd">
<svg version="1.0" xmlns="http://www.w3.org/2000/svg"
 width="1000.000000pt" height="1000.000000pt" viewBox="0 0 1000.000000 1000.000000"
 preserveAspectRatio="xMidYMid meet">

<g transform="translate(0.000000,1000.000000) scale(0.100000,-0.100000)"
fill="#000000" stroke="none">
<path d="M7975 6400 c-231 -77 -426 -140 -432 -140 -27 0 -11 -16 45 -47 l57
-31 335 87 335 88 46 91 c26 51 44 92 40 91 -3 0 -195 -63 -426 -139z"/>
<path d="M7198 6109 c-4 -26 7 -55 50 -140 31 -60 57 -107 59 -106 1 2 -22 65
-51 141 -47 122 -54 134 -58 105z"/>
<path d="M8094 5613 c3 -10 35 -160 72 -333 36 -173 72 -346 80 -385 8 -38 19
-87 25 -108 l10 -38 58 76 58 75 -89 268 c-48 147 -102 311 -119 365 l-30 97
-35 0 c-29 0 -34 -3 -30 -17z"/>
<path d="M2326 4505 c-9 -7 -13 -16 -7 -19 5 -3 11 -1 13 6 2 6 18 11 36 11
36 0 35 8 -1 12 -12 2 -31 -3 -41 -10z"/>
<path d="M1695 4491 c-6 -6 -77 -11 -158 -12 -116 -2 -147 -5 -143 -15 3 -8 0
-11 -9 -7 -8 3 -12 9 -9 14 3 5 0 9 -5 9 -27 0 1 -42 83 -128 135 -141 299
-215 506 -228 224 -14 423 51 555 184 l53 52 65 0 c64 0 65 1 76 31 6 17 8 35
5 40 -3 5 -1 9 4 9 13 0 23 39 12 45 -5 3 -11 1 -15 -5 -4 -6 -11 -8 -16 -4
-6 3 -19 -2 -30 -12 -11 -10 -19 -12 -19 -5 0 9 -47 11 -179 11 -144 -1 -179
-4 -175 -15 3 -7 0 -16 -7 -21 -7 -4 -10 -3 -6 2 3 6 2 16 -3 23 -6 11 -11 11
-29 -1 -11 -8 -18 -18 -13 -22 4 -5 0 -6 -8 -5 -8 2 -37 -3 -65 -11 -73 -22
-289 -19 -306 3 -3 4 -16 9 -29 10 -13 1 -34 12 -46 24 -14 14 -35 23 -54 23
-18 0 -29 4 -25 10 8 13 2 13 -10 1z m-270 -30 c3 -5 2 -12 -3 -15 -5 -3 -9 1
-9 9 0 17 3 19 12 6z m1270 -11 c3 -5 1 -10 -4 -10 -6 0 -11 5 -11 10 0 6 2
10 4 10 3 0 8 -4 11 -10z"/>
<path d="M1355 3881 c-51 -23 -66 -41 -72 -90 -11 -84 27 -121 146 -140 98
-16 129 -58 74 -101 -38 -30 -108 -23 -140 14 -24 28 -49 35 -39 11 3 -8 9
-22 12 -30 11 -28 -15 -15 -31 15 -18 35 -40 41 -30 8 22 -74 93 -114 186
-105 32 3 71 13 88 23 77 46 77 163 0 204 -9 5 -44 14 -79 19 -76 12 -110 33
-110 66 0 33 50 59 97 50 23 -4 33 -11 30 -20 -3 -7 2 -20 12 -29 16 -14 20
-13 56 24 46 47 41 58 -38 84 -62 21 -112 20 -162 -3z"/>
<path d="M1680 3865 l0 -35 160 0 160 0 0 35 0 35 -160 0 -160 0 0 -35z"/>
<path d="M2072 3728 c3 -190 7 -203 65 -239 80 -50 210 -27 253 43 18 30 20
50 20 201 0 142 -2 167 -15 167 -8 0 -15 -9 -15 -20 0 -11 -4 -20 -10 -20 -5
0 -10 9 -10 20 0 11 -7 20 -15 20 -13 0 -15 -24 -15 -154 0 -149 -1 -156 -24
-183 -29 -34 -92 -39 -125 -9 -19 17 -21 30 -21 138 l0 118 31 0 c26 0 30 3
24 18 -4 9 -12 29 -17 45 -9 25 -14 27 -70 27 l-60 0 4 -172z"/>
<path d="M2547 3855 c11 -32 20 -45 34 -45 18 0 19 -10 19 -175 0 -143 3 -175
14 -175 8 0 17 11 20 25 4 14 11 25 17 25 7 0 9 -10 5 -25 -5 -20 -3 -25 14
-25 19 0 20 6 20 180 l0 180 53 0 c64 0 94 -15 125 -60 20 -30 23 -44 20 -94
-4 -53 -8 -62 -41 -92 -29 -27 -45 -34 -76 -34 -38 0 -39 -1 -43 -40 l-4 -40
46 0 c96 1 179 68 199 161 28 128 -33 237 -148 269 -20 5 -93 10 -163 10
l-127 0 16 -45z"/>
<path d="M3060 3866 c0 -30 3 -35 28 -38 l27 -3 0 -145 0 -145 -32 -3 c-30 -3
-33 -6 -33 -38 l0 -34 105 0 105 0 0 35 c0 32 -2 35 -30 35 l-30 0 0 150 0
150 30 0 c28 0 30 3 30 35 l0 35 -100 0 -100 0 0 -34z"/>
<path d="M3460 3879 c-57 -26 -77 -44 -102 -94 -24 -46 -28 -140 -9 -197 15
-45 80 -104 130 -118 95 -26 199 8 248 81 25 38 28 51 28 129 0 78 -3 91 -28
129 -54 81 -173 113 -267 70z m160 -75 c40 -24 60 -65 60 -124 0 -88 -48 -140
-129 -140 -91 0 -136 53 -129 152 4 55 8 64 41 94 31 28 44 34 83 34 25 0 58
-7 74 -16z"/>
<path d="M1800 3625 c0 -99 4 -165 10 -165 13 0 30 34 30 59 0 12 5 21 10 21
6 0 10 -18 10 -40 0 -22 5 -40 10 -40 6 0 10 62 10 165 l0 165 -40 0 -40 0 0
-165z"/>
</g>
</svg>
